<?xml version="1.0" encoding="UTF-8"?>
<!DOCTYPE svg PUBLIC "-//W3C//DTD SVG 1.1//EN" "http://www.w3.org/Graphics/SVG/1.1/DTD/svg11.dtd">
<svg xmlns="http://www.w3.org/2000/svg" version="1.1" width="639px" height="293px" style="shape-rendering:geometricPrecision; text-rendering:geometricPrecision; image-rendering:optimizeQuality; fill-rule:evenodd; clip-rule:evenodd" xmlns:xlink="http://www.w3.org/1999/xlink">
<g><path style="opacity:0.908" fill="#2e246b" d="M 165.5,85.5 C 178.621,82.7792 182.954,87.6125 178.5,100C 163.653,104.324 159.319,99.491 165.5,85.5 Z"/></g>
<g><path style="opacity:0.93" fill="#2e246b" d="M 94.5,87.5 C 111.411,87.1749 128.244,87.5082 145,88.5C 147.101,92.4507 146.934,96.284 144.5,100C 131.838,100.5 119.171,100.667 106.5,100.5C 106.5,111.833 106.5,123.167 106.5,134.5C 118.851,134.168 131.185,134.501 143.5,135.5C 144.996,139.19 144.663,142.69 142.5,146C 130.505,146.5 118.505,146.667 106.5,146.5C 106.667,160.837 106.5,175.171 106,189.5C 105.5,190 105,190.5 104.5,191C 100.245,191.796 96.0785,191.629 92,190.5C 91.3333,157.167 91.3333,123.833 92,90.5C 92.6979,89.3094 93.5313,88.3094 94.5,87.5 Z"/></g>
<g><path style="opacity:0.912" fill="#01a7df" d="M 272.5,87.5 C 363.501,87.3333 454.501,87.5 545.5,88C 548.167,92 548.167,96 545.5,100C 469.501,100.5 393.501,100.667 317.5,100.5C 317.667,130.502 317.5,160.502 317,190.5C 312.921,191.629 308.755,191.796 304.5,191C 304,190.5 303.5,190 303,189.5C 302.5,159.835 302.333,130.169 302.5,100.5C 292.828,100.666 283.161,100.5 273.5,100C 271.16,96.0865 270.827,91.9198 272.5,87.5 Z"/></g>
<g><path style="opacity:0.938" fill="#2e246b" d="M 232.5,113.5 C 250.876,111.263 261.376,119.263 264,137.5C 264.825,155.407 264.658,173.24 263.5,191C 259.245,191.796 255.079,191.629 251,190.5C 250.916,172.462 250.249,154.462 249,136.5C 247.122,129.956 242.788,126.29 236,125.5C 227.433,127.45 220.767,132.117 216,139.5C 215.667,156.5 215.333,173.5 215,190.5C 212.925,191.134 210.759,191.468 208.5,191.5C 206.036,191.41 203.87,190.743 202,189.5C 201.333,165.167 201.333,140.833 202,116.5C 202.5,116 203,115.5 203.5,115C 206.833,114.333 210.167,114.333 213.5,115C 214.288,118.076 214.788,121.242 215,124.5C 220.217,119.653 226.05,115.986 232.5,113.5 Z"/></g>
<g><path style="opacity:0.934" fill="#01a7df" d="M 366.5,113.5 C 373.896,113.2 381.229,113.7 388.5,115C 396.641,118.137 401.474,123.97 403,132.5C 403.667,151.833 403.667,171.167 403,190.5C 399.591,191.622 396.091,191.789 392.5,191C 391.726,188.595 391.226,186.095 391,183.5C 378.893,193.707 365.726,195.207 351.5,188C 341.741,177.544 341.075,166.544 349.5,155C 353.609,151.612 358.275,149.279 363.5,148C 372.114,146.703 380.781,146.203 389.5,146.5C 391.896,133.579 386.73,126.246 374,124.5C 366.261,125.23 359.094,127.73 352.5,132C 351.056,132.781 349.723,132.614 348.5,131.5C 345.983,125.369 347.65,120.869 353.5,118C 357.893,116.329 362.226,114.829 366.5,113.5 Z M 374.5,156.5 C 379.5,156.5 384.5,156.5 389.5,156.5C 391.993,171.18 385.827,179.514 371,181.5C 359.787,180.238 356.121,174.238 360,163.5C 364.22,159.638 369.054,157.305 374.5,156.5 Z"/></g>
<g><path style="opacity:0.933" fill="#01a7df" d="M 444.5,113.5 C 451.896,113.2 459.229,113.7 466.5,115C 473,117.5 477.5,122 480,128.5C 481.607,149.124 481.941,169.79 481,190.5C 477.591,191.622 474.091,191.789 470.5,191C 469.726,188.595 469.226,186.095 469,183.5C 458.224,192.902 446.057,195.069 432.5,190C 422.83,183.182 419.663,174.015 423,162.5C 426.733,154.7 432.9,149.866 441.5,148C 450.114,146.703 458.781,146.203 467.5,146.5C 469.891,133.565 464.724,126.232 452,124.5C 444.226,125.203 437.059,127.703 430.5,132C 428.888,132.72 427.388,132.554 426,131.5C 425.333,128.5 425.333,125.5 426,122.5C 426.308,121.692 426.808,121.025 427.5,120.5C 432.853,117.167 438.519,114.833 444.5,113.5 Z M 452.5,156.5 C 457.5,156.5 462.5,156.5 467.5,156.5C 469.993,171.18 463.827,179.514 449,181.5C 438.915,180.747 434.915,175.413 437,165.5C 440.66,159.791 445.827,156.791 452.5,156.5 Z"/></g>
<g><path style="opacity:0.94" fill="#01a7df" d="M 531.5,113.5 C 536.267,113.191 540.934,113.691 545.5,115C 550.735,126.753 547.402,130.586 535.5,126.5C 528.279,129.552 522.779,134.552 519,141.5C 518.667,157.833 518.333,174.167 518,190.5C 513.921,191.629 509.755,191.796 505.5,191C 504.339,165.906 504.173,140.739 505,115.5C 508.802,114.194 512.635,114.194 516.5,115.5C 517.321,118.447 517.821,121.447 518,124.5C 521.842,119.805 526.342,116.139 531.5,113.5 Z"/></g>
<g><path style="opacity:0.938" fill="#2e246b" d="M 166.5,114.5 C 170.24,114.241 173.906,114.574 177.5,115.5C 178.827,140.732 178.827,165.899 177.5,191C 173.245,191.796 169.079,191.629 165,190.5C 164.833,178 164.667,165.5 164.5,153C 164.519,139.944 165.186,127.11 166.5,114.5 Z"/></g>
</svg>
